<svg xmlns="http://www.w3.org/2000/svg" version="1.1" xmlns:xlink="http://www.w3.org/1999/xlink" xmlns:svgjs="http://svgjs.dev/svgjs" width="1500" height="1682" viewBox="0 0 1500 1682"><g transform="matrix(1,0,0,1,-2.3364485981305734,0)"><svg viewBox="0 0 321 360" data-background-color="#ffffff" preserveAspectRatio="xMidYMid meet" height="1682" width="1500" xmlns="http://www.w3.org/2000/svg" xmlns:xlink="http://www.w3.org/1999/xlink"><g id="tight-bounds" transform="matrix(1,0,0,1,0.5,0)"><svg viewBox="0 0 320 360" height="360" width="320"><g><svg></svg></g><g><svg viewBox="0 0 320 360" height="360" width="320"><g><path d="M20.961 227.22l3.726 4.658-1.863-6.056c-0.466-2.795-3.726 0.466-1.863 1.398M25.153 224.425c1.397 2.329 2.795 4.658 2.795 6.987 0 3.261 2.795 4.658 5.123 5.589-3.261-3.726-5.124-13.974-7.918-12.576M204.017 26.929c7.918 0 15.371-0.932 23.756 0.931 20.495 5.124 37.729 15.371 49.374 29.811l32.606 52.169c1.397 13.042 4.192 27.482 3.726 43.319 3.261 0 2.795-4.658 6.521-5.59-3.726 9.316-5.59 20.961-6.521 34.469-2.329-7.453 0-18.632 0.466-24.687-3.261 5.124-5.124 1.397-5.124-0.932 0.466-3.726-1.397-3.261-2.795-4.658-5.124-4.658-8.384-9.782-12.11-17.7 2.329-6.055 2.795-14.905-4.658-19.563-2.329-1.397-5.124-3.726-6.521-7.453-1.863-5.124-5.124-11.179-4.193-19.097 0.466-2.329-6.987 5.124-11.179 1.863-18.166-12.576-36.332-27.016-58.224-39.127-11.645 0-20.029-4.192-24.221-9.316-3.726-4.658-0.932-10.713 4.658-11.179 3.261 0 6.987-0.932 9.782 0.932 0.466-1.863 2.329-4.192 4.657-4.192M157.904 16.215l0.932 0.466c4.658 0.932 6.987 7.453 12.11 5.124 0 3.261 0.466 6.521-0.466 8.85-1.397 3.726-5.59 3.726-8.85 3.726-31.208-1.863-49.374 11.179-68.471 22.358-5.124 3.261-10.713 5.59-14.906 9.782-20.029 18.632-41.921 35.866-47.045 70.335l-4.192 38.195c-0.466 4.192-5.124 8.384-4.192 13.508l3.26 22.824c-3.261-3.261-5.124 0.932-4.192 2.795 0.466 1.397 2.329 6.055 5.124 1.863 3.726 6.987 7.453 20.495 12.576 26.55 15.837 18.632 36.332 35.4 53.101 52.169 4.192-0.932 7.453-0.932 8.384-3.727 1.397 2.795-1.397 5.59-3.726 6.056 7.453 4.658 15.837 8.85 27.016 9.781 14.44 0.932 27.948 3.261 40.524 6.522 6.521-1.863 13.042-2.795 20.029-3.261 2.329 0 3.726-3.726 6.521-4.658l0.466-4.658c2.795 4.192 2.329-1.397 0.466-4.192 3.261 2.795 4.192 5.124 5.589 6.987 0-1.397 3.726-6.521 3.727-0.466l0.931-6.055c1.397-0.932 1.863 5.124 3.261 0.931 1.397-4.192 4.192-0.932 6.987-2.329-0.932 1.863-0.466 5.59 2.794 3.261l3.727-3.261c2.329 5.59 6.055 3.261 7.918 2.329 20.495-13.042 40.99-28.413 60.553-43.784l-0.466 6.055 2.329-7.453c2.329 2.329 4.192 0.466 5.124-0.931 2.795-4.658 6.521-9.316 12.577-13.508-7.453 20.029-16.303 35.866-27.482 48.908l-4.658 5.59c0 3.261-0.932 7.453-4.658 7.918-1.863 0.466-5.59-0.932-8.384 1.863-1.397 1.863 3.261 5.59-0.466 2.795-3.261-2.329-6.521 0-10.248 0.932-2.795 0.932 1.863 3.726 2.795 5.589 0.932 1.863 1.863 3.726 1.398 6.056l-5.124-5.59c-6.055 3.261-9.782 9.316-14.906 13.974-2.329 1.863-1.397 5.124-1.397 7.918-3.261 0-6.987-0.932-8.85 0.932-1.397 1.863-0.932 4.658-0.932 7.453-4.658-0.466-5.124-7.453-9.315-6.056-4.192 0.932-8.85 1.397-12.577 3.727 2.795 5.59-4.658 2.329-3.726 3.26-6.987-4.192-13.042-7.453-20.495-4.658-15.837-5.124-35.4-2.795-49.84-0.931 0-2.329 0.466-4.658-0.466-5.124-0.932 2.329-3.726 1.397-3.26 1.397-8.85-6.055-17.7-9.782-27.016-14.905-8.384 0.932-16.303-3.261-18.632-5.59-6.521-6.055-13.974-2.795-20.029-4.192-13.042-3.261-17.7-16.769-19.098-26.084-0.932-4.658-4.658-6.521-6.055-6.056-6.055-19.563-15.371-37.263-22.824-55.429-1.863-4.658-1.397-9.316-1.397-14.44 2.329 0.932 4.658 0.466 4.192-2.794-2.329-15.371-7.918-27.016-13.974-38.195 3.261-15.837 3.726-34.469 11.179-48.443 6.521-12.576 18.632-19.098 27.016-29.811 2.795-3.726 2.795-8.85 5.59-12.11 9.316-9.316 18.632-19.098 28.879-27.482 4.658-3.726 10.247 0 17.234-1.397 2.329-8.384 11.645-15.837 20.495-13.508 3.726 0.932 11.179-8.85 13.508-9.782 3.726-1.397 1.863 3.726 1.863 6.987 8.85-6.987 20.961-10.713 32.14-14.906" fill="#0c0a0f" fill-rule="nonzero" stroke="none" stroke-width="1" stroke-linecap="butt" stroke-linejoin="miter" stroke-miterlimit="10" stroke-dasharray="" stroke-dashoffset="0" font-family="none" font-weight="none" font-size="none" text-anchor="none" style="mix-blend-mode: normal" data-fill-palette-color="tertiary"></path></g><g transform="matrix(1,0,0,1,64,117.51339453674335)"><svg viewBox="0 0 192 124.9732109265133" height="124.9732109265133" width="192"><g><svg viewBox="0 0 192 124.9732109265133" height="124.9732109265133" width="192"><g><svg viewBox="0 0 192 124.9732109265133" height="124.9732109265133" width="192"><g id="textblocktransform"><svg viewBox="0 0 192 124.9732109265133" height="124.9732109265133" width="192" id="textblock"><g><rect width="192" height="94.16833287773281" fill="none" stroke-width="6.525998535600001" stroke="#0c0a0f" data-fill-palette-color="none" data-stroke-palette-color="tertiary"></rect><rect width="192" height="33.6304567283077" y="94.16833287773281" fill="#0c0a0f" data-fill-palette-color="tertiary"></rect></g><g><svg viewBox="0 0 192 93.16833287773281" height="93.16833287773281" width="192"><g transform="matrix(1,0,0,1,17.083765800000002,17.083765800000002)"><svg width="157.8324684" viewBox="3.35 -46.55 148.19 55.4" height="59.000801277732805" data-palette-color="#0c0a0f"><path d="M24.7-23.75L12.6-16.65 24.7-9.55 21.05-2.7 3.35-13.1 3.35-20.2 21.05-30.65 24.7-23.75ZM57.95 0L55.3-7.7 40.65-7.7 38 0 29 0 42.25-38.35 53.65-38.35 66.95 0 57.95 0ZM43.25-15.4L52.7-15.4 47.95-29.2 43.25-15.4ZM93.3 0L83.1-13.5 81.45-11.6 81.45 0 72.45 0 72.45-37.9 81.45-37.9 81.45-24.5 93.15-37.9 104.3-37.9 88.85-20.1 104.55 0 93.3 0ZM104.29 8.85L119.84-46.55 128.64-46.55 113.09 8.85 104.29 8.85ZM130.19-2.7L130.19-2.7ZM130.19-23.75L142.29-16.65 130.19-9.55 133.84-2.7 151.54-13.1 151.54-20.2 133.84-30.65 130.19-23.75Z" opacity="1" transform="matrix(1,0,0,1,0,0)" fill="#0c0a0f" class="wordmark-text-0" data-fill-palette-color="primary" id="text-0"></path></svg></g></svg></g><g transform="matrix(1,0,0,1,41.28,93.16833287773281)"><svg viewBox="0 0 109.44 31.804878048780488" height="31.804878048780488" width="109.44"><g transform="matrix(1,0,0,1,20,3.2)"><svg width="69.44" viewBox="3.25 -31.65 88.14 32.25" height="25.404878048780485" data-palette-color="#ffffff"><path d="M16.4 0L10 0 10-24.4 4.6-22.35 3.25-26.65 11.65-31.15 16.4-31.15 16.4 0ZM31.25-5.65L30.3-9.8 43.6-25.1 44.55-20.9 31.25-5.65ZM37.5 0.6L37.5 0.6Q34.15 0.6 31.67-1.25 29.2-3.1 27.87-6.68 26.55-10.25 26.55-15.4L26.55-15.4Q26.55-20.5 27.87-24.15 29.2-27.8 31.67-29.73 34.15-31.65 37.5-31.65L37.5-31.65Q40.85-31.65 43.32-29.73 45.8-27.8 47.12-24.15 48.45-20.5 48.45-15.4L48.45-15.4Q48.45-10.25 47.12-6.68 45.8-3.1 43.32-1.25 40.85 0.6 37.5 0.6ZM37.5-4.15L37.5-4.15Q39.3-4.15 40.42-5.48 41.55-6.8 42.1-9.3 42.65-11.8 42.65-15.4L42.65-15.4Q42.65-19 42.1-21.5 41.55-24 40.42-25.33 39.3-26.65 37.5-26.65L37.5-26.65Q35.75-26.65 34.6-25.33 33.45-24 32.9-21.5 32.35-19 32.35-15.4L32.35-15.4Q32.35-11.8 32.9-9.3 33.45-6.8 34.6-5.48 35.75-4.15 37.5-4.15ZM56.25-5.65L55.3-9.8 68.59-25.1 69.55-20.9 56.25-5.65ZM62.5 0.6L62.5 0.6Q59.15 0.6 56.67-1.25 54.2-3.1 52.87-6.68 51.55-10.25 51.55-15.4L51.55-15.4Q51.55-20.5 52.87-24.15 54.2-27.8 56.67-29.73 59.15-31.65 62.5-31.65L62.5-31.65Q65.84-31.65 68.32-29.73 70.8-27.8 72.12-24.15 73.45-20.5 73.45-15.4L73.45-15.4Q73.45-10.25 72.12-6.68 70.8-3.1 68.32-1.25 65.84 0.6 62.5 0.6ZM62.5-4.15L62.5-4.15Q64.3-4.15 65.42-5.48 66.55-6.8 67.09-9.3 67.65-11.8 67.65-15.4L67.65-15.4Q67.65-19 67.09-21.5 66.55-24 65.42-25.33 64.3-26.65 62.5-26.65L62.5-26.65Q60.75-26.65 59.6-25.33 58.45-24 57.9-21.5 57.35-19 57.35-15.4L57.35-15.4Q57.35-11.8 57.9-9.3 58.45-6.8 59.6-5.48 60.75-4.15 62.5-4.15ZM91.39 0L84.99 0 84.99-24.4 79.59-22.35 78.24-26.65 86.64-31.15 91.39-31.15 91.39 0Z" opacity="1" transform="matrix(1,0,0,1,0,0)" fill="#ffffff" class="slogan-text-1" data-fill-palette-color="quaternary" id="text-1"></path></svg></g></svg></g></svg></g></svg></g></svg></g></svg></g></svg></g><defs></defs></svg><rect width="320" height="360" fill="none" stroke="none" visibility="hidden"></rect></g></svg></g></svg>